<svg width="20" height="20" viewBox="0 0 20 20" fill="none" xmlns="http://www.w3.org/2000/svg">
<path d="M18.125 1.86287e-05H1.8751C1.37782 1.86287e-05 0.900852 0.19768 0.549179 0.549267C0.197648 0.900988 0 1.37798 0 1.87536V14.3769C0 14.8742 0.197637 15.3511 0.549179 15.7028C0.900855 16.0546 1.37778 16.2521 1.8751 16.2521H5.00009V19.2212C5.00009 19.4326 5.08612 19.6349 5.23812 19.7816C5.39027 19.9283 5.59547 20.0071 5.80661 19.9995C6.01791 19.9921 6.21699 19.8992 6.35839 19.7421L9.49994 16.2521H18.1249C18.6222 16.2521 19.0991 16.0545 19.4508 15.7028C19.8024 15.3511 20 14.8742 20 14.3769V1.87534C20 1.378 19.8024 0.900966 19.4508 0.549249C19.0991 0.197673 18.6222 0 18.1249 0L18.125 1.86287e-05ZM6.25008 9.37616C5.9186 9.37616 5.60064 9.24448 5.36623 9.01006C5.13183 8.77562 5.00017 8.45761 5.00017 8.12609C5.00017 7.79443 5.13183 7.47642 5.36623 7.24198C5.60064 7.00755 5.91861 6.87587 6.25008 6.87587C6.58156 6.87587 6.89952 7.00755 7.13393 7.24198C7.36848 7.47642 7.50015 7.79443 7.50015 8.12609C7.50015 8.45761 7.36848 8.77561 7.13393 9.01006C6.89953 9.24449 6.58156 9.37616 6.25008 9.37616ZM10.0001 9.37616C9.66859 9.37616 9.35063 9.24448 9.11622 9.01006C8.88181 8.77562 8.75001 8.45761 8.75001 8.12609C8.75001 7.79443 8.88181 7.47642 9.11622 7.24198C9.35062 7.00755 9.6686 6.87587 10.0001 6.87587C10.3315 6.87587 10.6495 7.00755 10.8839 7.24198C11.1183 7.47642 11.2501 7.79443 11.2501 8.12609C11.2501 8.45761 11.1183 8.77561 10.8839 9.01006C10.6495 9.24449 10.3315 9.37616 10.0001 9.37616ZM13.7501 9.37616C13.4186 9.37616 13.1006 9.24448 12.8662 9.01006C12.6317 8.77562 12.5 8.45761 12.5 8.12609C12.5 7.79443 12.6317 7.47642 12.8662 7.24198C13.1006 7.00755 13.4186 6.87587 13.7501 6.87587C14.0815 6.87587 14.3995 7.00755 14.6339 7.24198C14.8683 7.47642 15 7.79443 15 8.12609C15 8.45761 14.8683 8.77561 14.6339 9.01006C14.3995 9.24449 14.0815 9.37616 13.7501 9.37616Z" fill="white"/>
</svg>
