<svg width="20" height="20" viewBox="0 0 20 20" fill="none" xmlns="http://www.w3.org/2000/svg">
<path d="M16.9569 5.10831H3.0439C2.26129 5.10831 1.63086 4.47788 1.63086 3.69527C1.63086 2.91266 2.26129 2.28223 3.0439 2.28223H16.9569C17.7396 2.28223 18.37 2.91266 18.37 3.69527C18.37 4.47788 17.7396 5.10831 16.9569 5.10831ZM18.37 9.99962C18.37 9.21701 17.7396 8.58657 16.9569 8.58657H3.0439C2.26129 8.58657 1.63086 9.21701 1.63086 9.99962C1.63086 10.7822 2.26129 11.4127 3.0439 11.4127H16.9569C17.7396 11.4127 18.37 10.7822 18.37 9.99962ZM18.37 16.304C18.37 15.5214 17.7396 14.8909 16.9569 14.8909H3.0439C2.26129 14.8909 1.63086 15.5214 1.63086 16.304C1.63086 17.0866 2.26129 17.717 3.0439 17.717H16.9569C17.7396 17.717 18.37 17.0866 18.37 16.304Z" fill="white"/>
</svg>
