<svg width="18" height="18" viewBox="0 0 18 18" fill="none" xmlns="http://www.w3.org/2000/svg">
<path d="M16.7102 14.7147L10.7869 8.65444L16.711 2.59326C17.3884 2.04947 17.459 1.11275 16.8696 0.499183C16.281 -0.113502 15.2537 -0.169943 14.5765 0.372949L8.63462 6.45231L2.69275 0.372929C2.01549 -0.169963 0.988208 -0.113522 0.399627 0.499163C-0.189793 1.11273 -0.119141 2.04947 0.55826 2.59324L6.4823 8.65441L0.559059 14.7147C-0.119161 15.2581 -0.189793 16.1961 0.400507 16.8084C0.989088 17.4224 2.01631 17.4789 2.69363 16.9351L8.63462 10.8566L14.5756 16.9351C15.2529 17.4789 16.2801 17.4224 16.8687 16.8084C17.459 16.1961 17.3875 15.2581 16.7102 14.7147Z" fill="white"/>
</svg>
