<svg width="20" height="20" viewBox="0 0 20 20" fill="none" xmlns="http://www.w3.org/2000/svg">
<circle cx="10" cy="10" r="10" fill="white"/>
<path d="M8.88478 11.7292C8.88478 11.3559 8.94545 11.0292 9.06678 10.7492C9.19745 10.4599 9.35145 10.2172 9.52879 10.0212C9.71545 9.82524 9.95812 9.59191 10.2568 9.32124C10.6301 8.99458 10.9055 8.71458 11.0828 8.48124C11.2601 8.23858 11.3488 7.94924 11.3488 7.61324C11.3488 7.15591 11.1715 6.79191 10.8168 6.52124C10.4621 6.24124 9.97212 6.10124 9.34678 6.10124C8.25478 6.10124 7.41945 6.46991 6.84078 7.20724L5.81878 6.47924C6.21078 5.97524 6.71012 5.58791 7.31678 5.31724C7.93278 5.04658 8.64212 4.91124 9.44478 4.91124C10.4621 4.91124 11.2695 5.13524 11.8668 5.58324C12.4641 6.02191 12.7628 6.62858 12.7628 7.40324C12.7628 7.78591 12.6975 8.12658 12.5668 8.42524C12.4455 8.71458 12.2961 8.95724 12.1188 9.15324C11.9415 9.34924 11.7035 9.58258 11.4048 9.85324C11.0221 10.1986 10.7375 10.5019 10.5508 10.7632C10.3735 11.0246 10.2848 11.3466 10.2848 11.7292H8.88478ZM9.59878 14.9072C9.33745 14.9072 9.11812 14.8232 8.94078 14.6552C8.77278 14.4779 8.68879 14.2632 8.68879 14.0112C8.68879 13.7592 8.77278 13.5492 8.94078 13.3812C9.11812 13.2039 9.33745 13.1152 9.59878 13.1152C9.86012 13.1152 10.0748 13.2039 10.2428 13.3812C10.4108 13.5492 10.4948 13.7592 10.4948 14.0112C10.4948 14.2632 10.4061 14.4779 10.2288 14.6552C10.0608 14.8232 9.85079 14.9072 9.59878 14.9072Z" fill="#B62122"/>
</svg>
