<svg width="23" height="20" viewBox="0 0 23 20" fill="none" xmlns="http://www.w3.org/2000/svg">
<path d="M0 10.9336H2.31126V18.955H0V10.9336Z" fill="white"/>
<path d="M19.4668 14.6537L14.6667 16.5357H14.6222L14.5333 16.5805H14.4888C14.311 16.6254 14.1776 16.6702 14 16.6702H8.22169C7.95494 16.6702 7.73282 16.4461 7.73282 16.1773C7.73282 15.9084 7.95511 15.6844 8.22169 15.6844H13.9552C14.0441 15.6844 14.133 15.6844 14.222 15.6396H14.2664C14.5332 15.5051 14.7108 15.2364 14.7108 14.9226C14.7108 14.4745 14.3553 14.1159 13.9107 14.1159H10.7551C10.6217 14.1159 10.4884 14.0711 10.3996 13.9366C9.46618 12.9507 8.17728 12.3682 6.79943 12.3682H3.19922V17.4315L9.51084 19.717C10.7553 20.1651 12.1331 20.0754 13.3332 19.4929L22.2225 15.1911C21.5113 14.4741 20.4447 14.2501 19.4668 14.6534V14.6537Z" fill="white"/>
<path d="M13.8671 9.94812C16.5783 9.94812 18.8006 7.70749 18.8006 4.97406C18.8006 2.24063 16.5782 0 13.8671 0C11.1559 0 8.93359 2.24063 8.93359 4.97406C8.93359 7.70749 11.1559 9.94812 13.8671 9.94812ZM13.8671 5.46705C12.8449 5.46705 12.0004 4.6156 12.0004 3.58502C12.0004 2.73357 12.5782 1.97172 13.3783 1.79263V1.74781C13.3783 1.47886 13.6005 1.25491 13.8671 1.25491C14.1339 1.25491 14.356 1.47903 14.356 1.74781V1.79263C15.1561 2.01675 15.7339 2.73377 15.7339 3.58502C15.7339 3.85397 15.5116 4.07791 15.245 4.07791C14.9782 4.07791 14.7561 3.85379 14.7561 3.58502C14.7561 3.09213 14.3562 2.68873 13.8671 2.68873C13.3783 2.68873 12.9781 3.09196 12.9781 3.58502C12.9781 4.07791 13.3781 4.48131 13.8671 4.48131C14.8893 4.48131 15.7338 5.33276 15.7338 6.36334C15.7338 7.21479 15.156 7.97665 14.356 8.15573V8.20055C14.356 8.4695 14.1337 8.69345 13.8671 8.69345C13.6003 8.69345 13.3782 8.46933 13.3782 8.20055V8.15573C12.5781 7.93161 12.0004 7.2146 12.0004 6.36334C12.0004 6.0944 12.2226 5.87045 12.4892 5.87045C12.756 5.87045 12.9781 6.09457 12.9781 6.36334C12.9781 6.85624 13.378 7.25963 13.8671 7.25963C14.356 7.25963 14.7561 6.85641 14.7561 6.36334C14.7561 5.87026 14.3559 5.46705 13.8671 5.46705Z" fill="white"/>
</svg>
