<svg width="21" height="21" viewBox="0 0 21 21" fill="none" xmlns="http://www.w3.org/2000/svg">
<path d="M19.0313 1.95602e-05H1.96886C1.44671 1.95602e-05 0.945894 0.207564 0.576638 0.576731C0.20753 0.946037 0 1.44688 0 1.96913V15.0957C0 15.6179 0.207519 16.1187 0.576638 16.488C0.945898 16.8573 1.44667 17.0647 1.96886 17.0647H5.25009V20.1823C5.25009 20.4042 5.34043 20.6166 5.50003 20.7707C5.65979 20.9247 5.87524 21.0074 6.09694 20.9995C6.3188 20.9917 6.52784 20.8942 6.67631 20.7292L9.97493 17.0647H19.0311C19.5533 17.0647 20.0541 16.8573 20.4234 16.4879C20.7925 16.1186 21 15.6179 21 15.0957V1.96911C21 1.4469 20.7925 0.946014 20.4234 0.576711C20.0541 0.207557 19.5533 0 19.0311 0L19.0313 1.95602e-05ZM6.56259 9.84497C6.21453 9.84497 5.88068 9.70671 5.63455 9.46056C5.38842 9.2144 5.25018 8.88049 5.25018 8.5324C5.25018 8.18415 5.38843 7.85024 5.63455 7.60408C5.88067 7.35793 6.21454 7.21967 6.56259 7.21967C6.91064 7.21967 7.2445 7.35793 7.49063 7.60408C7.73691 7.85024 7.87515 8.18415 7.87515 8.5324C7.87515 8.88049 7.73691 9.21439 7.49063 9.46056C7.24451 9.70671 6.91063 9.84497 6.56259 9.84497ZM10.5001 9.84497C10.152 9.84497 9.81816 9.70671 9.57203 9.46056C9.3259 9.2144 9.18751 8.88049 9.18751 8.5324C9.18751 8.18415 9.3259 7.85024 9.57203 7.60408C9.81815 7.35793 10.152 7.21967 10.5001 7.21967C10.8481 7.21967 11.182 7.35793 11.4281 7.60408C11.6742 7.85024 11.8126 8.18415 11.8126 8.5324C11.8126 8.88049 11.6742 9.21439 11.4281 9.46056C11.182 9.70671 10.8481 9.84497 10.5001 9.84497ZM14.4376 9.84497C14.0895 9.84497 13.7556 9.70671 13.5095 9.46056C13.2632 9.2144 13.125 8.88049 13.125 8.5324C13.125 8.18415 13.2632 7.85024 13.5095 7.60408C13.7556 7.35793 14.0895 7.21967 14.4376 7.21967C14.7856 7.21967 15.1195 7.35793 15.3656 7.60408C15.6117 7.85024 15.75 8.18415 15.75 8.5324C15.75 8.88049 15.6117 9.21439 15.3656 9.46056C15.1195 9.70671 14.7856 9.84497 14.4376 9.84497Z" fill="#BBBBBB"/>
</svg>
