<svg width="22" height="20" viewBox="0 0 22 20" fill="none" xmlns="http://www.w3.org/2000/svg">
<path d="M0 10.8242H2.28804V18.765H0V10.8242Z" fill="#BBBBBB"/>
<path d="M19.2712 14.5062L14.5192 16.3693H14.4752L14.3872 16.4137H14.3432C14.1671 16.4581 14.0351 16.5025 13.8592 16.5025H8.139C7.87493 16.5025 7.65504 16.2806 7.65504 16.0145C7.65504 15.7483 7.8751 15.5266 8.139 15.5266H13.8149C13.9029 15.5266 13.991 15.5266 14.079 15.4822H14.123C14.3871 15.3491 14.5629 15.083 14.5629 14.7724C14.5629 14.3289 14.211 13.9739 13.7709 13.9739H10.647C10.5149 13.9739 10.3829 13.9295 10.2951 13.7964C9.37099 12.8203 8.09504 12.2437 6.73103 12.2437H3.16699V17.2561L9.4152 19.5187C10.6472 19.9622 12.0111 19.8735 13.1991 19.2968L21.9991 15.0382C21.2951 14.3284 20.2392 14.1067 19.2712 14.5059V14.5062Z" fill="#BBBBBB"/>
<path d="M13.7277 9.84817C16.4117 9.84817 18.6116 7.63005 18.6116 4.92409C18.6116 2.21812 16.4116 0 13.7277 0C11.0437 0 8.84375 2.21812 8.84375 4.92409C8.84375 7.63005 11.0438 9.84817 13.7277 9.84817ZM13.7277 5.41212C12.7158 5.41212 11.8797 4.56923 11.8797 3.549C11.8797 2.70611 12.4517 1.95191 13.2438 1.77462V1.73025C13.2438 1.464 13.4638 1.24231 13.7277 1.24231C13.9918 1.24231 14.2117 1.46417 14.2117 1.73025V1.77462C15.0037 1.99649 15.5757 2.7063 15.5757 3.549C15.5757 3.81524 15.3556 4.03694 15.0917 4.03694C14.8277 4.03694 14.6078 3.81507 14.6078 3.549C14.6078 3.06106 14.2118 2.66172 13.7277 2.66172C13.2438 2.66172 12.8477 3.06089 12.8477 3.549C12.8477 4.03694 13.2436 4.43629 13.7277 4.43629C14.7396 4.43629 15.5756 5.27918 15.5756 6.29941C15.5756 7.1423 15.0037 7.8965 14.2116 8.07379V8.11816C14.2116 8.38441 13.9916 8.6061 13.7277 8.6061C13.4636 8.6061 13.2437 8.38423 13.2437 8.11816V8.07379C12.4517 7.85192 11.8797 7.14211 11.8797 6.29941C11.8797 6.03317 12.0998 5.81147 12.3637 5.81147C12.6277 5.81147 12.8476 6.03334 12.8476 6.29941C12.8476 6.78735 13.2435 7.18669 13.7277 7.18669C14.2116 7.18669 14.6077 6.78752 14.6077 6.29941C14.6077 5.81128 14.2116 5.41212 13.7277 5.41212Z" fill="#BBBBBB"/>
</svg>
