<svg width="24" height="26" viewBox="0 0 24 26" fill="none" xmlns="http://www.w3.org/2000/svg">
<path d="M20.7018 21.5306C21.0049 22.3746 20.1295 23.1601 19.3231 22.7677L17.722 21.9886C17.0836 21.678 16.9632 20.8194 17.4917 20.3452L18.4911 19.4484C19.0196 18.9742 19.8602 19.1865 20.1002 19.8548L20.7018 21.5306Z" fill="#BBBBBB"/>
<circle cx="11.4862" cy="11.4862" r="11.4862" fill="#BBBBBB"/>
<path d="M10.5617 13.1816C10.5617 12.9216 10.605 12.6949 10.6917 12.5016C10.7783 12.3083 10.885 12.1349 11.0117 11.9816C11.145 11.8283 11.2883 11.6883 11.4417 11.5616C11.595 11.4283 11.7383 11.2983 11.8717 11.1716C12.005 11.0383 12.1117 10.8983 12.1917 10.7516C12.2783 10.6049 12.3217 10.4349 12.3217 10.2416C12.3217 9.9216 12.195 9.6616 11.9417 9.4616C11.6883 9.2616 11.3383 9.1616 10.8917 9.1616C10.4917 9.1616 10.145 9.22827 9.85165 9.3616C9.55832 9.49493 9.30832 9.6916 9.10165 9.9516L8.37165 9.4316C8.65165 9.07827 9.00832 8.80493 9.44165 8.6116C9.87499 8.4116 10.3817 8.3116 10.9617 8.3116C11.4417 8.3116 11.8583 8.38493 12.2117 8.5316C12.565 8.6716 12.8383 8.87493 13.0317 9.1416C13.2317 9.4016 13.3317 9.71827 13.3317 10.0916C13.3317 10.3716 13.2883 10.6116 13.2017 10.8116C13.115 11.0116 13.005 11.1883 12.8717 11.3416C12.7383 11.4949 12.595 11.6383 12.4417 11.7716C12.295 11.9049 12.155 12.0383 12.0217 12.1716C11.8883 12.3049 11.7783 12.4516 11.6917 12.6116C11.605 12.7716 11.5617 12.9616 11.5617 13.1816H10.5617ZM11.0717 15.4516C10.885 15.4516 10.7283 15.3883 10.6017 15.2616C10.4817 15.1349 10.4217 14.9849 10.4217 14.8116C10.4217 14.6249 10.4817 14.4716 10.6017 14.3516C10.7283 14.2316 10.885 14.1716 11.0717 14.1716C11.2583 14.1716 11.4117 14.2316 11.5317 14.3516C11.6517 14.4716 11.7117 14.6249 11.7117 14.8116C11.7117 14.9849 11.6517 15.1349 11.5317 15.2616C11.4117 15.3883 11.2583 15.4516 11.0717 15.4516Z" fill="white"/>
</svg>
