<svg width="113" height="66" viewBox="0 0 113 66" fill="none" xmlns="http://www.w3.org/2000/svg">
<g filter="url(#filter0_d_522_3816)">
<rect x="9" y="9" width="91" height="43.7364" rx="21.8682" fill="white"/>
</g>
<path d="M40.7465 27.2703V28.3583H49.4506V27.2703H40.7465ZM38.0105 30.2143V31.3503H52.2025V30.2143H38.0105ZM42.2185 30.9983C41.9465 33.6063 41.2585 35.4463 37.6585 36.3423C37.9145 36.5823 38.2345 37.0623 38.3625 37.3663C42.2666 36.2783 43.1625 34.1183 43.4985 30.9983H42.2185ZM46.2666 30.9023V35.4143C46.2666 36.6943 46.6505 37.0623 48.1226 37.0623C48.4425 37.0623 50.2825 37.0623 50.6026 37.0623C51.8826 37.0623 52.2346 36.5023 52.3626 34.3103C52.0426 34.2143 51.5306 34.0223 51.2746 33.8303C51.2266 35.6703 51.1146 35.9583 50.5065 35.9583C50.0906 35.9583 48.5705 35.9583 48.2506 35.9583C47.5786 35.9583 47.4665 35.8783 47.4665 35.3983V30.9023H46.2666ZM44.4426 22.6303V25.1743H45.7065V22.6303H44.4426ZM38.3785 24.3423V27.7343H39.5945V25.4783H50.5705V27.7343H51.8345V24.3423H38.3785ZM57.1945 28.6143V29.7343H61.1785V28.6143H57.1945ZM60.6985 28.6143V28.8223C60.6505 32.2783 60.5705 33.4783 60.3305 33.7663C60.2185 33.9103 60.0585 33.9263 59.8345 33.9263C59.5625 33.9263 58.8585 33.9263 58.1385 33.8623C58.3145 34.1663 58.4425 34.6303 58.4745 34.9823C59.2585 35.0143 59.9785 35.0303 60.3945 34.9823C60.8425 34.9343 61.0985 34.8223 61.3545 34.5343C61.6905 34.0863 61.7865 32.7423 61.8665 29.1263C61.8665 28.9663 61.8665 28.6143 61.8665 28.6143H60.6985ZM65.2105 23.4303C66.2185 23.9583 67.4505 24.7743 68.0585 25.3343L68.8105 24.5183C68.1865 23.9583 66.9225 23.1903 65.9305 22.6783L65.2105 23.4303ZM67.4985 27.7663C66.2985 31.6223 64.0425 34.5503 60.7945 36.2783C61.0505 36.5183 61.4985 37.0143 61.6745 37.2543C64.9545 35.3183 67.3385 32.2303 68.6985 28.0543L67.4985 27.7663ZM57.2905 25.3343V26.5183H69.6745V25.3343H57.2905ZM56.5225 25.3343V29.8303C56.5225 31.9263 56.3785 34.6783 55.0505 36.6463C55.3385 36.7903 55.8505 37.2063 56.0585 37.4463C57.5145 35.3503 57.7705 32.1183 57.7705 29.8463V25.3343H56.5225ZM63.1625 22.6463C63.2265 30.3103 64.6665 37.2223 67.9305 37.2223C69.1465 37.2223 69.5945 36.4383 69.8185 33.7023C69.4985 33.5903 69.0505 33.3183 68.7785 33.0463C68.6825 35.1743 68.4745 36.0063 68.0265 36.0063C65.9465 36.0063 64.3785 30.0063 64.4105 22.6463H63.1625Z" fill="#B62122"/>
<defs>
<filter id="filter0_d_522_3816" x="0" y="0" width="113" height="65.7365" filterUnits="userSpaceOnUse" color-interpolation-filters="sRGB">
<feFlood flood-opacity="0" result="BackgroundImageFix"/>
<feColorMatrix in="SourceAlpha" type="matrix" values="0 0 0 0 0 0 0 0 0 0 0 0 0 0 0 0 0 0 127 0" result="hardAlpha"/>
<feOffset dx="2" dy="2"/>
<feGaussianBlur stdDeviation="5.5"/>
<feComposite in2="hardAlpha" operator="out"/>
<feColorMatrix type="matrix" values="0 0 0 0 0 0 0 0 0 0 0 0 0 0 0 0 0 0 0.07 0"/>
<feBlend mode="normal" in2="BackgroundImageFix" result="effect1_dropShadow_522_3816"/>
<feBlend mode="normal" in="SourceGraphic" in2="effect1_dropShadow_522_3816" result="shape"/>
</filter>
</defs>
</svg>
