<svg width="92" height="166" viewBox="0 0 92 166" fill="none" xmlns="http://www.w3.org/2000/svg">
<g clip-path="url(#clip0_66_236)" filter="url(#filter0_d_66_236)">
<path d="M85.8326 125.019C91.0463 102.94 77.3736 80.8139 55.2938 75.6002C33.2139 70.3866 11.0882 84.0593 5.87451 106.139C0.660841 128.219 14.3336 150.345 36.4134 155.558C58.4932 160.772 80.619 147.099 85.8326 125.019Z" stroke="#EEEEEE" stroke-width="2" stroke-miterlimit="10"/>
<path d="M45.3699 83.6499V27.3999" stroke="#EEEEEE" stroke-width="2" stroke-miterlimit="10" stroke-linecap="round"/>
<path d="M31.6867 4.73794H28.0604V3.42342H36.8088V4.73794H33.1825V14H31.6867V4.73794ZM43.8369 14.1209C42.7692 14.1209 41.8072 13.8892 40.951 13.4258C40.0948 12.9524 39.4199 12.3027 38.9263 11.4767C38.4428 10.6507 38.2011 9.72908 38.2011 8.71171C38.2011 7.69434 38.4428 6.77267 38.9263 5.94669C39.4199 5.12071 40.0948 4.47604 40.951 4.01269C41.8072 3.53926 42.7692 3.30254 43.8369 3.30254C44.8946 3.30254 45.8515 3.53926 46.7077 4.01269C47.5639 4.47604 48.2337 5.12071 48.7172 5.94669C49.2007 6.7626 49.4425 7.68427 49.4425 8.71171C49.4425 9.73915 49.2007 10.6659 48.7172 11.4918C48.2337 12.3077 47.5639 12.9524 46.7077 13.4258C45.8515 13.8892 44.8946 14.1209 43.8369 14.1209ZM43.8369 12.7761C44.6125 12.7761 45.3075 12.5999 45.922 12.2473C46.5465 11.8948 47.0351 11.4113 47.3876 10.7968C47.7502 10.1723 47.9315 9.47725 47.9315 8.71171C47.9315 7.94617 47.7502 7.25617 47.3876 6.64172C47.0351 6.0172 46.5465 5.52866 45.922 5.17611C45.3075 4.82356 44.6125 4.64728 43.8369 4.64728C43.0613 4.64728 42.3562 4.82356 41.7216 5.17611C41.0971 5.52866 40.6035 6.0172 40.2409 6.64172C39.8883 7.25617 39.712 7.94617 39.712 8.71171C39.712 9.47725 39.8883 10.1723 40.2409 10.7968C40.6035 11.4113 41.0971 11.8948 41.7216 12.2473C42.3562 12.5999 43.0613 12.7761 43.8369 12.7761ZM56.6322 3.42342C58.0021 3.42342 59.0799 3.75079 59.8656 4.40553C60.6513 5.06027 61.0441 5.9618 61.0441 7.11011C61.0441 8.25843 60.6513 9.15996 59.8656 9.8147C59.0799 10.4694 58.0021 10.7968 56.6322 10.7968H54.0183V14H52.5073V3.42342H56.6322ZM56.5869 9.48229C57.5438 9.48229 58.2741 9.28083 58.7777 8.87791C59.2814 8.46492 59.5332 7.87566 59.5332 7.11011C59.5332 6.34457 59.2814 5.76034 58.7777 5.35742C58.2741 4.94443 57.5438 4.73794 56.5869 4.73794H54.0183V9.48229H56.5869Z" fill="white"/>
<path d="M33.2998 119.93L46.4398 106.79L59.5698 119.93" stroke="#EEEEEE" stroke-width="2" stroke-miterlimit="10" stroke-linecap="round"/>
</g>
<defs>
<filter id="filter0_d_66_236" x="0" y="0" width="91.72" height="165.43" filterUnits="userSpaceOnUse" color-interpolation-filters="sRGB">
<feFlood flood-opacity="0" result="BackgroundImageFix"/>
<feColorMatrix in="SourceAlpha" type="matrix" values="0 0 0 0 0 0 0 0 0 0 0 0 0 0 0 0 0 0 127 0" result="hardAlpha"/>
<feOffset dy="4"/>
<feGaussianBlur stdDeviation="2"/>
<feComposite in2="hardAlpha" operator="out"/>
<feColorMatrix type="matrix" values="0 0 0 0 0 0 0 0 0 0 0 0 0 0 0 0 0 0 0.25 0"/>
<feBlend mode="normal" in2="BackgroundImageFix" result="effect1_dropShadow_66_236"/>
<feBlend mode="normal" in="SourceGraphic" in2="effect1_dropShadow_66_236" result="shape"/>
</filter>
<clipPath id="clip0_66_236">
<rect width="83.72" height="157.43" fill="white" transform="translate(4)"/>
</clipPath>
</defs>
</svg>
